<svg xmlns="http://www.w3.org/2000/svg" xmlns:xlink="http://www.w3.org/1999/xlink" version="1.1" x="0px" y="0px" viewBox="0 0 100 100" enable-background="new 0 0 100 100" xml:space="preserve"><path d="M56.082,60.596c-1.131-2.944-1.329-12.545-1.329-12.545s3.52,1.317,4.815,2.343c0.985,0.782,3.011,3.209,3.938,3.853  c4.077,2.833,6.485-0.146,3.919-3.093c-1.225-1.405-2.704-3.617-5.435-5.404c-3.065-2.003-6.426-3.484-10.28-4.352  c-2.648-0.597-6.687-0.693-9.313,0c-3.081,0.812-7.5,4.309-10.644,3.801c-1.921-0.31-4.692-2.334-7.604-3.899  c-2.47-1.328-4.785,2.62-2.281,4.66c2.566,2.092,6.156,4.912,9.314,5.421c2.595,0.418,8.935-2.569,8.935-2.569  s2.283,9.412,2.09,12.546c-0.157,2.564-1.316,7.736-2.661,9.926c-1.382,2.252-5.094,4.576-8.032,6.875  c-2.913,2.283-0.19,5.005,2.204,4.172c2.915-1.014,7.555-4.504,9.287-6.326c1.761-1.855,6.553-9.007,6.553-9.007  s5.429,3.899,6.525,5.955c0.946,1.768,0.546,4.813,0.698,7.223c0.19,3.042,4.941,3.168,5.006,0.04  c0.054-2.683,0.36-7.539-0.381-10.452C60.688,66.947,57.032,63.07,56.082,60.596z"></path><g><path d="M26.62,34.295c-2.449,0-4.44,1.992-4.44,4.44c0,2.449,1.991,4.441,4.44,4.441s4.44-1.992,4.44-4.441   C31.061,36.287,29.069,34.295,26.62,34.295z M26.62,40.377c-0.905,0-1.642-0.737-1.642-1.642c0-0.905,0.736-1.641,1.642-1.641   s1.642,0.736,1.642,1.641C28.262,39.641,27.525,40.377,26.62,40.377z"></path></g><path d="M57.702,29.778c-0.2-0.735-0.945-1.165-1.667-0.961l-4.443,1.263c-1.375-2.677-4.448-4.115-7.414-3.27  c-1.654,0.47-3.029,1.569-3.872,3.094c-0.845,1.526-1.057,3.297-0.596,4.985c0.089,0.322,0.284,0.58,0.534,0.757  c1.181,2.429,3.958,3.749,6.652,2.999c2.541-0.708,4.191-3.029,4.167-5.547l5.697-1.618C57.48,31.275,57.901,30.514,57.702,29.778z   M48.878,30.851l-6.68,1.897c0.051-0.516,0.206-1.02,0.464-1.485c0.488-0.883,1.285-1.519,2.241-1.791  c0.333-0.095,0.667-0.14,0.996-0.14C47.073,29.333,48.18,29.904,48.878,30.851z"></path><path d="M77.441,86.283H16.752c-0.772,0-1.399-0.626-1.399-1.399V21.108c0-0.773,0.627-1.399,1.399-1.399h60.689  c0.772,0,1.399,0.626,1.399,1.399v63.776C78.841,85.657,78.214,86.283,77.441,86.283z M18.151,83.484h57.891V22.507H18.151V83.484z"></path><path d="M43.923,9.927L40.255,6.64c-0.043-0.038-0.096-0.054-0.142-0.086c-0.053-0.038-0.108-0.07-0.166-0.101  c-0.078-0.039-0.155-0.075-0.237-0.099c-0.109-0.034-0.223-0.057-0.342-0.063c-0.019-0.001-0.036-0.005-0.056-0.005  c-0.007,0-0.014-0.002-0.021-0.002c-0.424,0-0.799,0.193-1.056,0.491l-3.567,3.146c-0.579,0.511-0.635,1.396-0.124,1.976  c0.277,0.313,0.662,0.474,1.051,0.474c0.329,0,0.658-0.115,0.925-0.35l1.372-1.21v3.864c0,0.773,0.627,1.399,1.399,1.399  s1.399-0.626,1.399-1.399V10.79l1.364,1.222c0.575,0.516,1.461,0.467,1.976-0.108C44.548,11.327,44.499,10.442,43.923,9.927z"></path><path d="M59.952,10.707c-0.513-0.579-1.396-0.635-1.976-0.123l-1.119,0.987V7.683c0-0.773-0.627-1.399-1.399-1.399  s-1.399,0.626-1.399,1.399v3.857L53,10.591c-0.576-0.516-1.462-0.467-1.977,0.108c-0.516,0.576-0.467,1.461,0.108,1.977l3.393,3.04  c0.009,0.008,0.021,0.011,0.03,0.019c0.118,0.1,0.25,0.183,0.396,0.239c0.017,0.007,0.033,0.01,0.05,0.015  c0.144,0.051,0.297,0.083,0.458,0.083c0.158,0,0.309-0.032,0.451-0.081c0.019-0.006,0.035-0.01,0.054-0.017  c0.144-0.056,0.274-0.137,0.39-0.234c0.01-0.008,0.022-0.01,0.031-0.018l3.444-3.04C60.407,12.171,60.463,11.287,59.952,10.707z"></path></svg>